<svg width="56" height="60" viewBox="0 0 28 30" fill="none" xmlns="http://www.w3.org/2000/svg">
<circle cx="14" cy="16" r="14" fill="url(#paint0_linear_401_7067)" fill-opacity="0.32"/>
<circle cx="14" cy="16" r="14" fill="#111111" fill-opacity="0.16"/>
<path d="M0 16.0001C0 16.6531 0.0448568 17.2956 0.131542 17.9247C2.65421 12.7385 7.51748 11.4266 9.66072 11.1078C12.3499 10.7078 13.3143 8.9364 11.5429 6.46104C10.5645 5.09386 10.667 3.49284 10.9548 2.33325C4.68722 3.72364 0 9.31405 0 16.0001Z" fill="url(#paint1_linear_401_7067)" fill-opacity="0.32"/>
<path d="M0 16.0001C0 16.6531 0.0448568 17.2956 0.131542 17.9247C2.65421 12.7385 7.51748 11.4266 9.66072 11.1078C12.3499 10.7078 13.3143 8.9364 11.5429 6.46104C10.5645 5.09386 10.667 3.49284 10.9548 2.33325C4.68722 3.72364 0 9.31405 0 16.0001Z" fill="#111111" fill-opacity="0.16"/>
<path d="M25.4286 13.1084C26.9143 16.1362 26.7157 20.3646 24.2436 22.1456C21.7715 23.9267 17.7378 23.7362 17.7378 27.1648C17.7378 28.0935 17.9193 28.8107 18.1838 29.3632C23.8721 27.5842 28.0002 22.2746 28.0002 16.0001C28.0002 13.7036 27.4472 11.5362 26.4671 9.6239C25.5467 10.1608 24.5051 11.2262 25.4286 13.1084Z" fill="url(#paint2_linear_401_7067)" fill-opacity="0.32"/>
<path d="M25.4286 13.1084C26.9143 16.1362 26.7157 20.3646 24.2436 22.1456C21.7715 23.9267 17.7378 23.7362 17.7378 27.1648C17.7378 28.0935 17.9193 28.8107 18.1838 29.3632C23.8721 27.5842 28.0002 22.2746 28.0002 16.0001C28.0002 13.7036 27.4472 11.5362 26.4671 9.6239C25.5467 10.1608 24.5051 11.2262 25.4286 13.1084Z" fill="#111111" fill-opacity="0.16"/>
<mask id="mask0_401_7067" style="mask-type:alpha" maskUnits="userSpaceOnUse" x="0" y="-4" width="28" height="34">
<path d="M28 -3.6875H0V16C0 23.732 6.26801 30 14 30C21.732 30 28 23.732 28 16V-3.6875Z" fill="#D9D9D9"/>
</mask>
<g mask="url(#mask0_401_7067)">
<path d="M14.8524 26.6267C14.6341 26.6146 14.4411 26.5132 14.3071 26.3591V30.1862C14.7048 30.16 15.0981 30.1182 15.4863 30.0605V26.3564C15.3324 26.5348 15.1014 26.6405 14.8524 26.6267Z" fill="url(#paint3_linear_401_7067)"/>
<path d="M14.8524 26.6267C14.6341 26.6146 14.4411 26.5132 14.3071 26.3591V30.1862C14.7048 30.16 15.0981 30.1182 15.4863 30.0605V26.3564C15.3324 26.5348 15.1014 26.6405 14.8524 26.6267Z" fill="#6E5677" fill-opacity="0.76"/>
<path d="M15.4863 28.4382V26.3564C15.3324 26.5347 15.1014 26.6404 14.8524 26.6267C14.6341 26.6146 14.4411 26.5132 14.3071 26.3591V28.4305C14.5009 28.2535 14.9378 27.9817 15.4863 28.4382Z" fill="url(#paint4_linear_401_7067)"/>
<path d="M15.4863 28.4382V26.3564C15.3324 26.5347 15.1014 26.6404 14.8524 26.6267C14.6341 26.6146 14.4411 26.5132 14.3071 26.3591V28.4305C14.5009 28.2535 14.9378 27.9817 15.4863 28.4382Z" fill="#543E5B" fill-opacity="0.76"/>
<path d="M10.9837 26.7645C10.7266 26.6787 10.5428 26.471 10.477 26.225L8.99441 29.3155C8.9605 29.3861 8.91652 29.4504 8.8667 29.5103C9.25525 29.6369 9.65069 29.7481 10.0529 29.8419C10.0584 29.8263 10.0646 29.8109 10.0718 29.7959L11.5372 26.7412C11.3667 26.8141 11.1708 26.8268 10.9837 26.7645Z" fill="url(#paint5_linear_401_7067)"/>
<path d="M10.9837 26.7645C10.7266 26.6787 10.5428 26.471 10.477 26.225L8.99441 29.3155C8.9605 29.3861 8.91652 29.4504 8.8667 29.5103C9.25525 29.6369 9.65069 29.7481 10.0529 29.8419C10.0584 29.8263 10.0646 29.8109 10.0718 29.7959L11.5372 26.7412C11.3667 26.8141 11.1708 26.8268 10.9837 26.7645Z" fill="#6E5677" fill-opacity="0.76"/>
<path d="M10.984 26.7646C10.7269 26.6789 10.543 26.4711 10.4773 26.2251L9.6377 27.9753C9.91652 27.9109 10.4391 27.8873 10.6912 28.5055L11.5375 26.7414C11.367 26.8142 11.1711 26.8269 10.984 26.7646Z" fill="url(#paint6_linear_401_7067)"/>
<path d="M10.984 26.7646C10.7269 26.6789 10.543 26.4711 10.4773 26.2251L9.6377 27.9753C9.91652 27.9109 10.4391 27.8873 10.6912 28.5055L11.5375 26.7414C11.367 26.8142 11.1711 26.8269 10.984 26.7646Z" fill="#543E5B" fill-opacity="0.76"/>
<path d="M7.44366 21.3199L7.41978 21.2895L7.38128 21.2864C6.43774 21.2099 6.26487 21.0871 5.65151 21.0871C4.25245 21.0871 3.40307 21.718 2.46785 22.5473C2.35624 22.6464 2.18454 22.5456 2.21703 22.4C2.36891 21.7199 2.67238 20.7459 3.25579 19.9679C3.39712 19.7794 3.20025 19.5237 2.98186 19.6159C2.56649 19.791 2.09386 20.0295 1.5772 20.3251C1.49324 20.3732 1.38959 20.2993 1.41258 20.203C1.51547 19.7708 1.72112 19.0784 2.10984 18.2787C1.02062 19.0771 0.300243 19.9849 -0.172852 20.8768C0.418989 22.4435 1.27509 23.8801 2.3415 25.1326C2.84036 24.4412 3.30543 23.9707 3.5451 23.7463C3.60937 23.6861 3.71432 23.7315 3.71432 23.8196V24.7031C3.71432 24.8608 3.91543 24.9285 4.00989 24.8023C5.30948 23.0654 6.97056 22.3796 8.2372 22.1175C7.9743 21.9096 7.70691 21.6551 7.44366 21.3199Z" fill="url(#paint7_linear_401_7067)"/>
<path d="M7.44366 21.3199L7.41978 21.2895L7.38128 21.2864C6.43774 21.2099 6.26487 21.0871 5.65151 21.0871C4.25245 21.0871 3.40307 21.718 2.46785 22.5473C2.35624 22.6464 2.18454 22.5456 2.21703 22.4C2.36891 21.7199 2.67238 20.7459 3.25579 19.9679C3.39712 19.7794 3.20025 19.5237 2.98186 19.6159C2.56649 19.791 2.09386 20.0295 1.5772 20.3251C1.49324 20.3732 1.38959 20.2993 1.41258 20.203C1.51547 19.7708 1.72112 19.0784 2.10984 18.2787C1.02062 19.0771 0.300243 19.9849 -0.172852 20.8768C0.418989 22.4435 1.27509 23.8801 2.3415 25.1326C2.84036 24.4412 3.30543 23.9707 3.5451 23.7463C3.60937 23.6861 3.71432 23.7315 3.71432 23.8196V24.7031C3.71432 24.8608 3.91543 24.9285 4.00989 24.8023C5.30948 23.0654 6.97056 22.3796 8.2372 22.1175C7.9743 21.9096 7.70691 21.6551 7.44366 21.3199Z" fill="#FF7186" fill-opacity="0.48"/>
<path d="M19.3375 9.1886C16.49 7.17676 16.0908 5.80777 16.1677 5.08775C16.1708 5.05875 16.1766 5.03092 16.1846 5.00438L16.0944 4.99837C15.3434 4.97809 14.7633 4.61773 14.3697 3.9263C14.096 3.44554 14.0079 2.95676 13.9913 2.84987L13.9764 2.65784C13.4103 3.92972 13.4309 5.43898 14.1219 6.73498C14.7866 7.98169 16.0431 9.60533 18.4147 11.1736C22.0511 13.5782 22.0744 16.5365 20.9093 17.3637C20.845 17.4094 20.7778 17.4457 20.7091 17.4732V17.5683C20.6155 17.7694 20.4844 18.0789 20.3733 18.4436C20.1109 19.3046 20.0913 20.0235 20.3149 20.5803C20.5019 21.0459 20.858 21.3853 21.3749 21.5915L21.4117 21.6721C22.9525 20.84 24.0339 19.3983 24.3205 17.6788C24.8003 14.8002 23.7604 12.3135 19.3375 9.1886Z" fill="url(#paint8_linear_401_7067)"/>
<path d="M19.3375 9.1886C16.49 7.17676 16.0908 5.80777 16.1677 5.08775C16.1708 5.05875 16.1766 5.03092 16.1846 5.00438L16.0944 4.99837C15.3434 4.97809 14.7633 4.61773 14.3697 3.9263C14.096 3.44554 14.0079 2.95676 13.9913 2.84987L13.9764 2.65784C13.4103 3.92972 13.4309 5.43898 14.1219 6.73498C14.7866 7.98169 16.0431 9.60533 18.4147 11.1736C22.0511 13.5782 22.0744 16.5365 20.9093 17.3637C20.845 17.4094 20.7778 17.4457 20.7091 17.4732V17.5683C20.6155 17.7694 20.4844 18.0789 20.3733 18.4436C20.1109 19.3046 20.0913 20.0235 20.3149 20.5803C20.5019 21.0459 20.858 21.3853 21.3749 21.5915L21.4117 21.6721C22.9525 20.84 24.0339 19.3983 24.3205 17.6788C24.8003 14.8002 23.7604 12.3135 19.3375 9.1886Z" fill="#FC899C" fill-opacity="0.48"/>
<path d="M16.8267 4.73442C18.268 5.42502 19.5332 4.68283 19.5332 4.68283L19.5479 4.6517C19.4908 4.62452 19.4535 4.56839 19.4519 4.50524C19.449 3.58152 19.3749 3.44149 19.4914 3.18365L19.5676 3.01491C19.6763 2.77424 19.8206 2.71669 20.4136 2.1347C20.5219 2.03258 20.662 1.97969 20.804 1.97946L20.82 1.9455C20.82 1.9455 19.0464 -0.952387 16.2129 0.382879C15.0934 0.910453 14.3083 1.806 13.9004 2.83951L13.9006 2.83956C13.9006 2.83956 14.1842 5.09207 16.1679 5.08777C16.2014 4.77386 16.542 4.59799 16.8267 4.73442Z" fill="url(#paint9_linear_401_7067)"/>
<path d="M16.8267 4.73442C18.268 5.42502 19.5332 4.68283 19.5332 4.68283L19.5479 4.6517C19.4908 4.62452 19.4535 4.56839 19.4519 4.50524C19.449 3.58152 19.3749 3.44149 19.4914 3.18365L19.5676 3.01491C19.6763 2.77424 19.8206 2.71669 20.4136 2.1347C20.5219 2.03258 20.662 1.97969 20.804 1.97946L20.82 1.9455C20.82 1.9455 19.0464 -0.952387 16.2129 0.382879C15.0934 0.910453 14.3083 1.806 13.9004 2.83951L13.9006 2.83956C13.9006 2.83956 14.1842 5.09207 16.1679 5.08777C16.2014 4.77386 16.542 4.59799 16.8267 4.73442Z" fill="#F9A0B1" fill-opacity="0.48"/>
<path d="M20.91 17.3637C20.3272 17.7775 19.5149 17.4239 19.3757 16.7229C19.3081 16.3819 19.1742 15.9441 18.9119 15.4955C18.9888 16.7179 18.4191 17.9837 17.1772 18.7205C15.123 19.9394 11.0423 21.5706 7.28223 21.2539C8.38336 22.7405 9.57046 22.7723 10.2003 23.6928C10.6685 24.3772 10.5646 25.3255 10.4129 25.96C10.3187 26.354 10.5408 26.7544 10.9251 26.8824C11.2889 27.0036 11.6868 26.8429 11.8641 26.503L13.1249 24.0864C13.4004 23.5583 13.848 23.1408 14.393 22.9003C14.7152 22.7581 15.0481 22.5989 15.3294 22.4603C15.7628 22.2466 16.2556 22.178 16.7287 22.2768C18.5626 22.6598 20.2594 22.3492 21.5882 21.5735C19.0458 20.7696 20.91 17.3637 20.91 17.3637Z" fill="url(#paint10_linear_401_7067)"/>
<path d="M20.91 17.3637C20.3272 17.7775 19.5149 17.4239 19.3757 16.7229C19.3081 16.3819 19.1742 15.9441 18.9119 15.4955C18.9888 16.7179 18.4191 17.9837 17.1772 18.7205C15.123 19.9394 11.0423 21.5706 7.28223 21.2539C8.38336 22.7405 9.57046 22.7723 10.2003 23.6928C10.6685 24.3772 10.5646 25.3255 10.4129 25.96C10.3187 26.354 10.5408 26.7544 10.9251 26.8824C11.2889 27.0036 11.6868 26.8429 11.8641 26.503L13.1249 24.0864C13.4004 23.5583 13.848 23.1408 14.393 22.9003C14.7152 22.7581 15.0481 22.5989 15.3294 22.4603C15.7628 22.2466 16.2556 22.178 16.7287 22.2768C18.5626 22.6598 20.2594 22.3492 21.5882 21.5735C19.0458 20.7696 20.91 17.3637 20.91 17.3637Z" fill="#FF7186" fill-opacity="0.48"/>
<path d="M18.7236 1.8424C18.8062 1.49331 18.5901 1.14343 18.241 1.06091C17.8919 0.978391 17.542 1.19449 17.4595 1.54358C17.377 1.89267 17.5931 2.24255 17.9421 2.32507C18.2912 2.40759 18.6411 2.19149 18.7236 1.8424Z" fill="url(#paint11_linear_401_7067)"/>
<path d="M18.7236 1.8424C18.8062 1.49331 18.5901 1.14343 18.241 1.06091C17.8919 0.978391 17.542 1.19449 17.4595 1.54358C17.377 1.89267 17.5931 2.24255 17.9421 2.32507C18.2912 2.40759 18.6411 2.19149 18.7236 1.8424Z" fill="#45304C" fill-opacity="0.76"/>
<path d="M16.3046 23.2634C15.3394 23.469 14.8086 23.8823 14.8086 24.43V25.8585L14.8093 25.8697C14.8117 25.8884 14.8685 26.2951 15.2836 26.5382L15.3252 26.6169C15.4906 26.5079 15.6138 26.3368 15.6586 26.131L16.2384 23.7625C16.2759 23.5901 16.3306 23.423 16.4009 23.2635H16.3046V23.2634Z" fill="url(#paint12_linear_401_7067)"/>
<path d="M16.3046 23.2634C15.3394 23.469 14.8086 23.8823 14.8086 24.43V25.8585L14.8093 25.8697C14.8117 25.8884 14.8685 26.2951 15.2836 26.5382L15.3252 26.6169C15.4906 26.5079 15.6138 26.3368 15.6586 26.131L16.2384 23.7625C16.2759 23.5901 16.3306 23.423 16.4009 23.2635H16.3046V23.2634Z" fill="#FC899C" fill-opacity="0.48"/>
<path d="M17.1492 22.2843C17.1663 22.2704 17.1834 22.2563 17.2005 22.2423C17.0442 22.2194 16.8868 22.192 16.7283 22.1588C16.2552 22.06 15.7624 22.1286 15.329 22.3423C15.0477 22.481 14.7147 22.6402 14.3926 22.7823C13.8475 23.0227 13.4 23.4403 13.1245 23.9684L13.1074 24.0012C13.1779 24.0467 13.2466 24.0966 13.3134 24.1532C13.9453 24.69 14.0949 25.3375 14.1157 25.9895C14.1286 26.3945 14.4483 26.7222 14.8528 26.7445C15.0797 26.7571 15.2921 26.6708 15.4445 26.5205C14.9549 26.3107 14.8971 25.8586 14.8971 25.8586C14.8971 25.8586 14.8971 25.4459 14.8971 24.4301C14.8971 23.7525 15.7804 23.4601 16.3684 23.3406C16.5339 22.9303 16.8019 22.5664 17.1492 22.2843Z" fill="url(#paint13_linear_401_7067)"/>
<path d="M17.1492 22.2843C17.1663 22.2704 17.1834 22.2563 17.2005 22.2423C17.0442 22.2194 16.8868 22.192 16.7283 22.1588C16.2552 22.06 15.7624 22.1286 15.329 22.3423C15.0477 22.481 14.7147 22.6402 14.3926 22.7823C13.8475 23.0227 13.4 23.4403 13.1245 23.9684L13.1074 24.0012C13.1779 24.0467 13.2466 24.0966 13.3134 24.1532C13.9453 24.69 14.0949 25.3375 14.1157 25.9895C14.1286 26.3945 14.4483 26.7222 14.8528 26.7445C15.0797 26.7571 15.2921 26.6708 15.4445 26.5205C14.9549 26.3107 14.8971 25.8586 14.8971 25.8586C14.8971 25.8586 14.8971 25.4459 14.8971 24.4301C14.8971 23.7525 15.7804 23.4601 16.3684 23.3406C16.5339 22.9303 16.8019 22.5664 17.1492 22.2843Z" fill="#FF7186" fill-opacity="0.48"/>
<path d="M17.6354 13.1133C15.9092 11.8 13.1742 11.5906 9.06337 12.7372C7.6958 14.0206 7.54751 15.2775 9.66535 15.8587C12.4532 16.624 9.35228 19.0193 10.2607 20.6549C10.373 20.8571 10.5421 21.0355 10.77 21.1912C13.3806 20.7413 15.8021 19.6893 17.236 18.8384C19.4419 17.5296 19.5273 14.5526 17.6354 13.1133Z" fill="url(#paint14_linear_401_7067)"/>
<path d="M17.6354 13.1133C15.9092 11.8 13.1742 11.5906 9.06337 12.7372C7.6958 14.0206 7.54751 15.2775 9.66535 15.8587C12.4532 16.624 9.35228 19.0193 10.2607 20.6549C10.373 20.8571 10.5421 21.0355 10.77 21.1912C13.3806 20.7413 15.8021 19.6893 17.236 18.8384C19.4419 17.5296 19.5273 14.5526 17.6354 13.1133Z" fill="#F9A0B1" fill-opacity="0.48"/>
<path d="M21.2553 3.83142L21.2775 3.93896C21.2775 3.93896 20.1499 4.1317 20.4675 5.20024C20.7611 5.38272 21.0828 5.62215 21.392 5.9311C21.9679 5.48259 22.0501 4.93539 22.0607 4.74772C22.0893 4.73752 22.1178 4.7282 22.1462 4.71912C21.9139 4.4018 21.6211 4.10134 21.2553 3.83142Z" fill="url(#paint15_linear_401_7067)"/>
<path d="M21.2553 3.83142L21.2775 3.93896C21.2775 3.93896 20.1499 4.1317 20.4675 5.20024C20.7611 5.38272 21.0828 5.62215 21.392 5.9311C21.9679 5.48259 22.0501 4.93539 22.0607 4.74772C22.0893 4.73752 22.1178 4.7282 22.1462 4.71912C21.9139 4.4018 21.6211 4.10134 21.2553 3.83142Z" fill="#FFC839" fill-opacity="0.76"/>
<path d="M19.4825 2.98945L19.411 3.14763C19.3599 3.2609 19.335 3.38424 19.3382 3.50847L19.3637 4.5059C19.3664 4.61214 19.4334 4.70618 19.5335 4.74215C19.7328 4.81384 20.0928 4.96295 20.504 5.22308C20.1759 4.18168 21.2779 3.99471 21.2779 3.99471L21.2419 3.82149C20.783 3.48565 20.2102 3.19769 19.4985 2.98438L19.4825 2.98945Z" fill="url(#paint16_linear_401_7067)"/>
<path d="M19.4825 2.98945L19.411 3.14763C19.3599 3.2609 19.335 3.38424 19.3382 3.50847L19.3637 4.5059C19.3664 4.61214 19.4334 4.70618 19.5335 4.74215C19.7328 4.81384 20.0928 4.96295 20.504 5.22308C20.1759 4.18168 21.2779 3.99471 21.2779 3.99471L21.2419 3.82149C20.783 3.48565 20.2102 3.19769 19.4985 2.98438L19.4825 2.98945Z" fill="#FFB332" fill-opacity="0.76"/>
<path d="M21.3286 5.86782C21.9489 6.46567 22.53 7.33751 22.7472 8.58452L22.8596 8.37486C23.0441 7.41829 23.0491 5.8904 22.0904 4.64417C22.0516 4.65702 22.0128 4.67082 21.9739 4.68567C21.9739 4.68567 22.0011 5.3485 21.3286 5.86782Z" fill="url(#paint17_linear_401_7067)"/>
<path d="M21.3286 5.86782C21.9489 6.46567 22.53 7.33751 22.7472 8.58452L22.8596 8.37486C23.0441 7.41829 23.0491 5.8904 22.0904 4.64417C22.0516 4.65702 22.0128 4.67082 21.9739 4.68567C21.9739 4.68567 22.0011 5.3485 21.3286 5.86782Z" fill="#45304C" fill-opacity="0.76"/>
<path d="M22.0572 4.79496C22.0589 4.77733 22.0601 4.76141 22.061 4.74756C22.7005 4.51944 23.3212 4.57121 23.7606 4.66891C23.2814 3.09414 21.7966 2.26617 21.0678 1.94554C20.8264 1.83936 20.5449 1.88941 20.353 2.07036L19.6862 2.69917C19.6023 2.77841 19.5346 2.87328 19.4871 2.97852L19.4438 3.07427C20.7122 3.46046 21.5359 4.08538 22.0572 4.79496Z" fill="url(#paint18_linear_401_7067)"/>
<path d="M22.0572 4.79496C22.0589 4.77733 22.0601 4.76141 22.061 4.74756C22.7005 4.51944 23.3212 4.57121 23.7606 4.66891C23.2814 3.09414 21.7966 2.26617 21.0678 1.94554C20.8264 1.83936 20.5449 1.88941 20.353 2.07036L19.6862 2.69917C19.6023 2.77841 19.5346 2.87328 19.4871 2.97852L19.4438 3.07427C20.7122 3.46046 21.5359 4.08538 22.0572 4.79496Z" fill="#FFDD7B" fill-opacity="0.76"/>
<path d="M22.9924 8.65719C23.9949 6.92671 24.0718 5.58744 23.7285 4.5702C23.268 4.47433 22.631 4.43454 21.9736 4.68559V4.68571C23.0083 5.99621 22.9576 7.63129 22.747 8.58443C22.7173 8.71886 22.9234 8.77635 22.9924 8.65719Z" fill="url(#paint19_linear_401_7067)"/>
<path d="M22.9924 8.65719C23.9949 6.92671 24.0718 5.58744 23.7285 4.5702C23.268 4.47433 22.631 4.43454 21.9736 4.68559V4.68571C23.0083 5.99621 22.9576 7.63129 22.747 8.58443C22.7173 8.71886 22.9234 8.77635 22.9924 8.65719Z" fill="#6E5677" fill-opacity="0.76"/>
<path d="M9.68901 15.7735C7.14106 15.0742 8.2847 13.5675 9.26839 12.6809C9.01445 12.7497 8.7552 12.8238 8.49053 12.9032C3.09546 14.5217 1.6579 18.7922 1.32701 20.1825C1.28645 20.353 1.46952 20.489 1.62164 20.4019C2.23476 20.0511 2.69889 19.8313 3.01669 19.6973C3.15141 19.6405 3.27322 19.7979 3.18549 19.9149C2.58622 20.714 2.27969 21.7156 2.13117 22.3807C2.07999 22.61 2.35115 22.7693 2.52697 22.6134C2.75432 22.4119 2.98798 22.2176 3.21562 22.0361C4.09589 21.3347 5.23665 21.0338 6.34333 21.2391C7.82629 21.5141 9.39521 21.4394 10.8969 21.1688C8.5647 19.7141 12.944 16.667 9.68901 15.7735Z" fill="url(#paint20_linear_401_7067)"/>
<path d="M9.68901 15.7735C7.14106 15.0742 8.2847 13.5675 9.26839 12.6809C9.01445 12.7497 8.7552 12.8238 8.49053 12.9032C3.09546 14.5217 1.6579 18.7922 1.32701 20.1825C1.28645 20.353 1.46952 20.489 1.62164 20.4019C2.23476 20.0511 2.69889 19.8313 3.01669 19.6973C3.15141 19.6405 3.27322 19.7979 3.18549 19.9149C2.58622 20.714 2.27969 21.7156 2.13117 22.3807C2.07999 22.61 2.35115 22.7693 2.52697 22.6134C2.75432 22.4119 2.98798 22.2176 3.21562 22.0361C4.09589 21.3347 5.23665 21.0338 6.34333 21.2391C7.82629 21.5141 9.39521 21.4394 10.8969 21.1688C8.5647 19.7141 12.944 16.667 9.68901 15.7735Z" fill="#FC899C" fill-opacity="0.48"/>
<path d="M17.6351 13.1132C16.399 12.1728 14.6455 11.7984 12.24 12.0827C12.0839 12.7344 12.1069 13.8712 13.973 14.2505C16.6458 14.7938 17.0601 16.1996 16.401 17.6782C16.1449 18.2525 16.356 18.7461 16.71 19.135C16.8972 19.0344 17.0729 18.9351 17.2358 18.8384C19.4416 17.5296 19.527 14.5526 17.6351 13.1132Z" fill="url(#paint21_linear_401_7067)"/>
<path d="M17.6351 13.1132C16.399 12.1728 14.6455 11.7984 12.24 12.0827C12.0839 12.7344 12.1069 13.8712 13.973 14.2505C16.6458 14.7938 17.0601 16.1996 16.401 17.6782C16.1449 18.2525 16.356 18.7461 16.71 19.135C16.8972 19.0344 17.0729 18.9351 17.2358 18.8384C19.4416 17.5296 19.527 14.5526 17.6351 13.1132Z" fill="#FFC5D3" fill-opacity="0.48"/>
</g>
<defs>
<linearGradient id="paint0_linear_401_7067" x1="-7.13208" y1="-3.18696" x2="25.681" y2="15.8376" gradientUnits="userSpaceOnUse">
<stop stop-color="white" stop-opacity="0.48"/>
<stop offset="1" stop-color="white" stop-opacity="0.24"/>
</linearGradient>
<linearGradient id="paint1_linear_401_7067" x1="-3.16893" y1="-0.555047" x2="12.8772" y2="6.8684" gradientUnits="userSpaceOnUse">
<stop stop-color="white" stop-opacity="0.48"/>
<stop offset="1" stop-color="white" stop-opacity="0.24"/>
</linearGradient>
<linearGradient id="paint2_linear_401_7067" x1="15.1238" y1="5.96723" x2="29.8545" y2="10.4075" gradientUnits="userSpaceOnUse">
<stop stop-color="white" stop-opacity="0.48"/>
<stop offset="1" stop-color="white" stop-opacity="0.24"/>
</linearGradient>
<linearGradient id="paint3_linear_401_7067" x1="14.3071" y1="26.3564" x2="15.5035" y2="26.3618" gradientUnits="userSpaceOnUse">
<stop stop-color="#D90070"/>
<stop offset="1" stop-color="#EE006B"/>
</linearGradient>
<linearGradient id="paint4_linear_401_7067" x1="14.3071" y1="26.3564" x2="15.5034" y2="26.3663" gradientUnits="userSpaceOnUse">
<stop stop-color="#D90070"/>
<stop offset="1" stop-color="#EE006B"/>
</linearGradient>
<linearGradient id="paint5_linear_401_7067" x1="8.8667" y1="26.225" x2="11.5758" y2="26.2541" gradientUnits="userSpaceOnUse">
<stop stop-color="#D90070"/>
<stop offset="1" stop-color="#EE006B"/>
</linearGradient>
<linearGradient id="paint6_linear_401_7067" x1="9.6377" y1="26.2251" x2="11.5649" y2="26.2485" gradientUnits="userSpaceOnUse">
<stop stop-color="#D90070"/>
<stop offset="1" stop-color="#EE006B"/>
</linearGradient>
<linearGradient id="paint7_linear_401_7067" x1="-0.172852" y1="18.2787" x2="8.35697" y2="18.4311" gradientUnits="userSpaceOnUse">
<stop stop-color="#D90070"/>
<stop offset="1" stop-color="#EE006B"/>
</linearGradient>
<linearGradient id="paint8_linear_401_7067" x1="13.5757" y1="2.65784" x2="24.585" y2="2.74936" gradientUnits="userSpaceOnUse">
<stop stop-color="#D90070"/>
<stop offset="1" stop-color="#EE006B"/>
</linearGradient>
<linearGradient id="paint9_linear_401_7067" x1="13.9004" y1="0.03125" x2="20.918" y2="0.171131" gradientUnits="userSpaceOnUse">
<stop stop-color="#D90070"/>
<stop offset="1" stop-color="#EE006B"/>
</linearGradient>
<linearGradient id="paint10_linear_401_7067" x1="7.28223" y1="15.4955" x2="21.7917" y2="15.7601" gradientUnits="userSpaceOnUse">
<stop stop-color="#D90070"/>
<stop offset="1" stop-color="#EE006B"/>
</linearGradient>
<linearGradient id="paint11_linear_401_7067" x1="17.3101" y1="2.17566" x2="17.6319" y2="0.89777" gradientUnits="userSpaceOnUse">
<stop stop-color="#D90070"/>
<stop offset="1" stop-color="#EE006B"/>
</linearGradient>
<linearGradient id="paint12_linear_401_7067" x1="14.8086" y1="23.2634" x2="16.424" y2="23.2746" gradientUnits="userSpaceOnUse">
<stop stop-color="#D90070"/>
<stop offset="1" stop-color="#EE006B"/>
</linearGradient>
<linearGradient id="paint13_linear_401_7067" x1="13.1074" y1="22.1145" x2="17.2595" y2="22.168" gradientUnits="userSpaceOnUse">
<stop stop-color="#D90070"/>
<stop offset="1" stop-color="#EE006B"/>
</linearGradient>
<linearGradient id="paint14_linear_401_7067" x1="8.05176" y1="11.9897" x2="19.1336" y2="12.1814" gradientUnits="userSpaceOnUse">
<stop stop-color="#D90070"/>
<stop offset="1" stop-color="#EE006B"/>
</linearGradient>
<linearGradient id="paint15_linear_401_7067" x1="20.4111" y1="3.83142" x2="22.1713" y2="3.85261" gradientUnits="userSpaceOnUse">
<stop stop-color="#D90070"/>
<stop offset="1" stop-color="#EE006B"/>
</linearGradient>
<linearGradient id="paint16_linear_401_7067" x1="19.3379" y1="2.98438" x2="21.3058" y2="3.00922" gradientUnits="userSpaceOnUse">
<stop stop-color="#D90070"/>
<stop offset="1" stop-color="#EE006B"/>
</linearGradient>
<linearGradient id="paint17_linear_401_7067" x1="21.3286" y1="4.64417" x2="22.9797" y2="4.6541" gradientUnits="userSpaceOnUse">
<stop stop-color="#D90070"/>
<stop offset="1" stop-color="#EE006B"/>
</linearGradient>
<linearGradient id="paint18_linear_401_7067" x1="19.4438" y1="1.89038" x2="23.8214" y2="1.98515" gradientUnits="userSpaceOnUse">
<stop stop-color="#D90070"/>
<stop offset="1" stop-color="#EE006B"/>
</linearGradient>
<linearGradient id="paint19_linear_401_7067" x1="21.9736" y1="4.49622" x2="23.9412" y2="4.50937" gradientUnits="userSpaceOnUse">
<stop stop-color="#D90070"/>
<stop offset="1" stop-color="#EE006B"/>
</linearGradient>
<linearGradient id="paint20_linear_401_7067" x1="1.32129" y1="12.6809" x2="11.0831" y2="12.8178" gradientUnits="userSpaceOnUse">
<stop stop-color="#D90070"/>
<stop offset="1" stop-color="#EE006B"/>
</linearGradient>
<linearGradient id="paint21_linear_401_7067" x1="12.1807" y1="11.9897" x2="19.0752" y2="12.0853" gradientUnits="userSpaceOnUse">
<stop stop-color="#D90070"/>
<stop offset="1" stop-color="#EE006B"/>
</linearGradient>
</defs>
</svg>
