<svg width="56" height="60" viewBox="0 0 56 60" fill="none" xmlns="http://www.w3.org/2000/svg">
<circle cx="28" cy="32" r="28" fill="#111111" fill-opacity="0.16"/>
<circle cx="28" cy="32" r="28" fill="url(#paint0_linear_401_4979)" fill-opacity="0.16"/>
<path d="M0 32.0001C0 33.306 0.0897135 34.591 0.263084 35.8493C5.30841 25.4769 15.035 22.8531 19.3214 22.2155C24.6998 21.4155 26.6287 17.8727 23.0859 12.922C21.1291 10.1876 21.334 6.98556 21.9095 4.66638C9.37443 7.44716 0 18.628 0 32.0001Z" fill="#111111" fill-opacity="0.16"/>
<path d="M0 32.0001C0 33.306 0.0897135 34.591 0.263084 35.8493C5.30841 25.4769 15.035 22.8531 19.3214 22.2155C24.6998 21.4155 26.6287 17.8727 23.0859 12.922C21.1291 10.1876 21.334 6.98556 21.9095 4.66638C9.37443 7.44716 0 18.628 0 32.0001Z" fill="url(#paint1_linear_401_4979)" fill-opacity="0.16"/>
<path d="M50.8573 26.2168C53.8287 32.2725 53.4314 40.7291 48.4872 44.2913C43.5431 47.8534 35.4756 47.4725 35.4756 54.3296C35.4756 56.187 35.8387 57.6213 36.3677 58.7263C47.7442 55.1684 56.0003 44.5492 56.0003 32.0002C56.0003 27.4072 54.8944 23.0725 52.9343 19.2478C51.0934 20.3215 49.0102 22.4523 50.8573 26.2168Z" fill="#111111" fill-opacity="0.16"/>
<path d="M50.8573 26.2168C53.8287 32.2725 53.4314 40.7291 48.4872 44.2913C43.5431 47.8534 35.4756 47.4725 35.4756 54.3296C35.4756 56.187 35.8387 57.6213 36.3677 58.7263C47.7442 55.1684 56.0003 44.5492 56.0003 32.0002C56.0003 27.4072 54.8944 23.0725 52.9343 19.2478C51.0934 20.3215 49.0102 22.4523 50.8573 26.2168Z" fill="url(#paint2_linear_401_4979)" fill-opacity="0.16"/>
<mask id="mask0_401_4979" style="mask-type:alpha" maskUnits="userSpaceOnUse" x="0" y="-8" width="56" height="68">
<path d="M56 -7.375H0V32C0 47.464 12.536 60 28 60C43.464 60 56 47.464 56 32V-7.375Z" fill="#D9D9D9"/>
</mask>
<g mask="url(#mask0_401_4979)">
<path d="M29.7058 53.2533C29.2692 53.2291 28.8831 53.0263 28.6152 52.7182V60.3724C29.4105 60.32 30.1972 60.2364 30.9736 60.121V52.7129C30.6659 53.0696 30.2039 53.2809 29.7058 53.2533Z" fill="url(#paint3_linear_401_4979)"/>
<path d="M29.7058 53.2533C29.2692 53.2291 28.8831 53.0263 28.6152 52.7182V60.3724C29.4105 60.32 30.1972 60.2364 30.9736 60.121V52.7129C30.6659 53.0696 30.2039 53.2809 29.7058 53.2533Z" fill="#6E5677" fill-opacity="0.76"/>
<path d="M30.9736 56.8764V52.7129C30.6659 53.0695 30.2039 53.2808 29.7058 53.2533C29.2692 53.2291 28.8831 53.0263 28.6152 52.7182V56.861C29.0027 56.507 29.8766 55.9635 30.9736 56.8764Z" fill="url(#paint4_linear_401_4979)"/>
<path d="M30.9736 56.8764V52.7129C30.6659 53.0695 30.2039 53.2808 29.7058 53.2533C29.2692 53.2291 28.8831 53.0263 28.6152 52.7182V56.861C29.0027 56.507 29.8766 55.9635 30.9736 56.8764Z" fill="#543E5B" fill-opacity="0.76"/>
<path d="M21.9684 53.529C21.4542 53.3576 21.0865 52.942 20.955 52.4501L17.9898 58.6311C17.922 58.7723 17.834 58.901 17.7344 59.0208C18.5115 59.274 19.3024 59.4964 20.1068 59.6839C20.1178 59.6527 20.1302 59.622 20.1445 59.5919L23.0753 53.4826C22.7344 53.6283 22.3426 53.6537 21.9684 53.529Z" fill="url(#paint5_linear_401_4979)"/>
<path d="M21.9684 53.529C21.4542 53.3576 21.0865 52.942 20.955 52.4501L17.9898 58.6311C17.922 58.7723 17.834 58.901 17.7344 59.0208C18.5115 59.274 19.3024 59.4964 20.1068 59.6839C20.1178 59.6527 20.1302 59.622 20.1445 59.5919L23.0753 53.4826C22.7344 53.6283 22.3426 53.6537 21.9684 53.529Z" fill="#6E5677" fill-opacity="0.76"/>
<path d="M21.969 53.5293C21.4547 53.3579 21.087 52.9423 20.9555 52.4504L19.2764 55.9507C19.834 55.8221 20.8793 55.7748 21.3834 57.0112L23.076 53.4829C22.735 53.6286 22.3431 53.654 21.969 53.5293Z" fill="url(#paint6_linear_401_4979)"/>
<path d="M21.969 53.5293C21.4547 53.3579 21.087 52.9423 20.9555 52.4504L19.2764 55.9507C19.834 55.8221 20.8793 55.7748 21.3834 57.0112L23.076 53.4829C22.735 53.6286 22.3431 53.654 21.969 53.5293Z" fill="#543E5B" fill-opacity="0.76"/>
<path d="M14.8873 42.6396L14.8396 42.5788L14.7626 42.5725C12.8755 42.4197 12.5297 42.1741 11.303 42.1741C8.50489 42.1741 6.80614 43.4358 4.93569 45.0945C4.71247 45.2926 4.36909 45.0911 4.43406 44.7999C4.73782 43.4397 5.34476 41.4917 6.51158 39.9357C6.79423 39.5586 6.4005 39.0473 5.96372 39.2316C5.13297 39.5817 4.18773 40.0588 3.1544 40.6501C2.98648 40.7463 2.77918 40.5984 2.82516 40.4059C3.03093 39.5414 3.44224 38.1565 4.21968 36.5572C2.04123 38.1541 0.600486 39.9696 -0.345703 41.7535C0.837977 44.8868 2.55017 47.7601 4.68299 50.265C5.68071 48.8822 6.61087 47.9413 7.09021 47.4924C7.21874 47.372 7.42864 47.4629 7.42864 47.6389V49.406C7.42864 49.7214 7.83086 49.8569 8.01977 49.6043C10.619 46.1306 13.9411 44.759 16.4744 44.2348C15.9486 43.8189 15.4138 43.31 14.8873 42.6396Z" fill="url(#paint7_linear_401_4979)"/>
<path d="M14.8873 42.6396L14.8396 42.5788L14.7626 42.5725C12.8755 42.4197 12.5297 42.1741 11.303 42.1741C8.50489 42.1741 6.80614 43.4358 4.93569 45.0945C4.71247 45.2926 4.36909 45.0911 4.43406 44.7999C4.73782 43.4397 5.34476 41.4917 6.51158 39.9357C6.79423 39.5586 6.4005 39.0473 5.96372 39.2316C5.13297 39.5817 4.18773 40.0588 3.1544 40.6501C2.98648 40.7463 2.77918 40.5984 2.82516 40.4059C3.03093 39.5414 3.44224 38.1565 4.21968 36.5572C2.04123 38.1541 0.600486 39.9696 -0.345703 41.7535C0.837977 44.8868 2.55017 47.7601 4.68299 50.265C5.68071 48.8822 6.61087 47.9413 7.09021 47.4924C7.21874 47.372 7.42864 47.4629 7.42864 47.6389V49.406C7.42864 49.7214 7.83086 49.8569 8.01977 49.6043C10.619 46.1306 13.9411 44.759 16.4744 44.2348C15.9486 43.8189 15.4138 43.31 14.8873 42.6396Z" fill="#FF7186" fill-opacity="0.48"/>
<path d="M38.675 18.3772C32.98 14.3535 32.1816 11.6155 32.3354 10.1755C32.3417 10.1175 32.3531 10.0618 32.3693 10.0088L32.1887 9.99674C30.6868 9.95618 29.5267 9.23545 28.7394 7.8526C28.1919 6.89108 28.0159 5.91353 27.9825 5.69974L27.9528 5.31567C26.8207 7.85944 26.8618 10.878 28.2437 13.47C29.5731 15.9634 32.0861 19.2106 36.8293 22.3472C44.1022 27.1563 44.1487 33.073 41.8186 34.7274C41.69 34.8188 41.5557 34.8914 41.4182 34.9465V35.1366C41.2311 35.5388 40.9688 36.1577 40.7466 36.8872C40.2219 38.6092 40.1826 40.047 40.6298 41.1606C41.0038 42.0917 41.7161 42.7707 42.7497 43.1829L42.8234 43.3443C45.9049 41.6799 48.0678 38.7966 48.641 35.3577C49.6005 29.6003 47.5208 24.6269 38.675 18.3772Z" fill="url(#paint8_linear_401_4979)"/>
<path d="M38.675 18.3772C32.98 14.3535 32.1816 11.6155 32.3354 10.1755C32.3417 10.1175 32.3531 10.0618 32.3693 10.0088L32.1887 9.99674C30.6868 9.95618 29.5267 9.23545 28.7394 7.8526C28.1919 6.89108 28.0159 5.91353 27.9825 5.69974L27.9528 5.31567C26.8207 7.85944 26.8618 10.878 28.2437 13.47C29.5731 15.9634 32.0861 19.2106 36.8293 22.3472C44.1022 27.1563 44.1487 33.073 41.8186 34.7274C41.69 34.8188 41.5557 34.8914 41.4182 34.9465V35.1366C41.2311 35.5388 40.9688 36.1577 40.7466 36.8872C40.2219 38.6092 40.1826 40.047 40.6298 41.1606C41.0038 42.0917 41.7161 42.7707 42.7497 43.1829L42.8234 43.3443C45.9049 41.6799 48.0678 38.7966 48.641 35.3577C49.6005 29.6003 47.5208 24.6269 38.675 18.3772Z" fill="#FC899C" fill-opacity="0.48"/>
<path d="M33.6534 9.46872C36.5361 10.8499 39.0665 9.36554 39.0665 9.36554L39.0957 9.30327C38.9816 9.24891 38.9071 9.13665 38.9038 9.01036C38.898 7.16291 38.7499 6.88285 38.9829 6.36719L39.1352 6.0297C39.3527 5.54835 39.6411 5.43326 40.8273 4.26927C41.0438 4.06504 41.324 3.95926 41.608 3.95879L41.64 3.89087C41.64 3.89087 38.0928 -1.9049 32.4258 0.765636C30.1868 1.82078 28.6167 3.61187 27.8008 5.67889L27.8011 5.67901C27.8011 5.67901 28.3683 10.184 32.3359 10.1754C32.4028 9.5476 33.084 9.19585 33.6534 9.46872Z" fill="url(#paint9_linear_401_4979)"/>
<path d="M33.6534 9.46872C36.5361 10.8499 39.0665 9.36554 39.0665 9.36554L39.0957 9.30327C38.9816 9.24891 38.9071 9.13665 38.9038 9.01036C38.898 7.16291 38.7499 6.88285 38.9829 6.36719L39.1352 6.0297C39.3527 5.54835 39.6411 5.43326 40.8273 4.26927C41.0438 4.06504 41.324 3.95926 41.608 3.95879L41.64 3.89087C41.64 3.89087 38.0928 -1.9049 32.4258 0.765636C30.1868 1.82078 28.6167 3.61187 27.8008 5.67889L27.8011 5.67901C27.8011 5.67901 28.3683 10.184 32.3359 10.1754C32.4028 9.5476 33.084 9.19585 33.6534 9.46872Z" fill="#F9A0B1" fill-opacity="0.48"/>
<path d="M41.82 34.7275C40.6545 35.5551 39.0299 34.8479 38.7515 33.4457C38.6161 32.7638 38.3484 31.8881 37.8238 30.991C37.9776 33.4358 36.8382 35.9673 34.3544 37.4411C30.2459 39.8788 22.0847 43.1412 14.5645 42.5079C16.7667 45.481 19.1409 45.5446 20.4005 47.3856C21.3371 48.7543 21.1293 50.651 20.8259 51.92C20.6374 52.708 21.0815 53.5087 21.8503 53.7648C22.5777 54.0073 23.3735 53.6857 23.7282 53.0059L26.2498 48.1728C26.8009 47.1166 27.696 46.2815 28.7859 45.8005C29.4304 45.5162 30.0962 45.1978 30.6588 44.9206C31.5257 44.4933 32.5113 44.356 33.4575 44.5536C37.1252 45.3197 40.5189 44.6984 43.1763 43.147C38.0916 41.5393 41.82 34.7275 41.82 34.7275Z" fill="url(#paint10_linear_401_4979)"/>
<path d="M41.82 34.7275C40.6545 35.5551 39.0299 34.8479 38.7515 33.4457C38.6161 32.7638 38.3484 31.8881 37.8238 30.991C37.9776 33.4358 36.8382 35.9673 34.3544 37.4411C30.2459 39.8788 22.0847 43.1412 14.5645 42.5079C16.7667 45.481 19.1409 45.5446 20.4005 47.3856C21.3371 48.7543 21.1293 50.651 20.8259 51.92C20.6374 52.708 21.0815 53.5087 21.8503 53.7648C22.5777 54.0073 23.3735 53.6857 23.7282 53.0059L26.2498 48.1728C26.8009 47.1166 27.696 46.2815 28.7859 45.8005C29.4304 45.5162 30.0962 45.1978 30.6588 44.9206C31.5257 44.4933 32.5113 44.356 33.4575 44.5536C37.1252 45.3197 40.5189 44.6984 43.1763 43.147C38.0916 41.5393 41.82 34.7275 41.82 34.7275Z" fill="#FF7186" fill-opacity="0.48"/>
<path d="M37.4463 3.68487C37.6113 2.98669 37.1791 2.28692 36.481 2.12188C35.7828 1.95684 35.083 2.38904 34.918 3.08722C34.7529 3.78539 35.1851 4.48517 35.8833 4.6502C36.5815 4.81524 37.2813 4.38305 37.4463 3.68487Z" fill="url(#paint11_linear_401_4979)"/>
<path d="M37.4463 3.68487C37.6113 2.98669 37.1791 2.28692 36.481 2.12188C35.7828 1.95684 35.083 2.38904 34.918 3.08722C34.7529 3.78539 35.1851 4.48517 35.8833 4.6502C36.5815 4.81524 37.2813 4.38305 37.4463 3.68487Z" fill="#45304C" fill-opacity="0.76"/>
<path d="M32.6092 46.5269C30.6788 46.938 29.6172 47.7647 29.6172 48.8599V51.717L29.6186 51.7394C29.6234 51.7768 29.737 52.5903 30.5673 53.0764L30.6504 53.2338C30.9812 53.0158 31.2276 52.6736 31.3172 52.262L32.4767 47.525C32.5519 47.1801 32.6612 46.8461 32.8019 46.527H32.6092V46.5269Z" fill="url(#paint12_linear_401_4979)"/>
<path d="M32.6092 46.5269C30.6788 46.938 29.6172 47.7647 29.6172 48.8599V51.717L29.6186 51.7394C29.6234 51.7768 29.737 52.5903 30.5673 53.0764L30.6504 53.2338C30.9812 53.0158 31.2276 52.6736 31.3172 52.262L32.4767 47.525C32.5519 47.1801 32.6612 46.8461 32.8019 46.527H32.6092V46.5269Z" fill="#FC899C" fill-opacity="0.48"/>
<path d="M34.2984 44.5686C34.3326 44.5409 34.3669 44.5126 34.4011 44.4845C34.0885 44.4388 33.7736 44.3839 33.4567 44.3177C32.5105 44.12 31.5249 44.2573 30.6579 44.6846C30.0954 44.962 29.4295 45.2804 28.7851 45.5646C27.6951 46.0454 26.8001 46.8805 26.249 47.9369L26.2148 48.0024C26.3558 48.0933 26.4933 48.1931 26.6267 48.3064C27.8906 49.3801 28.1899 50.6751 28.2314 51.979C28.2572 52.7889 28.8966 53.4443 29.7055 53.489C30.1594 53.5141 30.5842 53.3416 30.889 53.0409C29.9097 52.6213 29.7942 51.7173 29.7942 51.7173C29.7942 51.7173 29.7942 50.8918 29.7942 48.8603C29.7942 47.5049 31.5609 46.9203 32.7369 46.6813C33.0679 45.8605 33.6038 45.1327 34.2984 44.5686Z" fill="url(#paint13_linear_401_4979)"/>
<path d="M34.2984 44.5686C34.3326 44.5409 34.3669 44.5126 34.4011 44.4845C34.0885 44.4388 33.7736 44.3839 33.4567 44.3177C32.5105 44.12 31.5249 44.2573 30.6579 44.6846C30.0954 44.962 29.4295 45.2804 28.7851 45.5646C27.6951 46.0454 26.8001 46.8805 26.249 47.9369L26.2148 48.0024C26.3558 48.0933 26.4933 48.1931 26.6267 48.3064C27.8906 49.3801 28.1899 50.6751 28.2314 51.979C28.2572 52.7889 28.8966 53.4443 29.7055 53.489C30.1594 53.5141 30.5842 53.3416 30.889 53.0409C29.9097 52.6213 29.7942 51.7173 29.7942 51.7173C29.7942 51.7173 29.7942 50.8918 29.7942 48.8603C29.7942 47.5049 31.5609 46.9203 32.7369 46.6813C33.0679 45.8605 33.6038 45.1327 34.2984 44.5686Z" fill="#FF7186" fill-opacity="0.48"/>
<path d="M35.2717 26.2265C31.8193 23.6 26.3495 23.1811 18.1277 25.4744C15.3926 28.0413 15.096 30.555 19.3317 31.7174C24.9074 33.248 18.7055 38.0385 20.5224 41.3099C20.747 41.7142 21.0852 42.0709 21.541 42.3824C26.7622 41.4825 31.6051 39.3786 34.4731 37.6769C38.8847 35.0593 39.0556 29.1052 35.2717 26.2265Z" fill="url(#paint14_linear_401_4979)"/>
<path d="M35.2717 26.2265C31.8193 23.6 26.3495 23.1811 18.1277 25.4744C15.3926 28.0413 15.096 30.555 19.3317 31.7174C24.9074 33.248 18.7055 38.0385 20.5224 41.3099C20.747 41.7142 21.0852 42.0709 21.541 42.3824C26.7622 41.4825 31.6051 39.3786 34.4731 37.6769C38.8847 35.0593 39.0556 29.1052 35.2717 26.2265Z" fill="#F9A0B1" fill-opacity="0.48"/>
<path d="M42.5116 7.66296L42.556 7.87805C42.556 7.87805 40.3008 8.26353 40.936 10.4006C41.5232 10.7656 42.1666 11.2444 42.7849 11.8623C43.9367 10.9653 44.1012 9.8709 44.1225 9.49556C44.1795 9.47516 44.2365 9.45653 44.2934 9.43837C43.8287 8.80372 43.2433 8.2028 42.5116 7.66296Z" fill="url(#paint15_linear_401_4979)"/>
<path d="M42.5116 7.66296L42.556 7.87805C42.556 7.87805 40.3008 8.26353 40.936 10.4006C41.5232 10.7656 42.1666 11.2444 42.7849 11.8623C43.9367 10.9653 44.1012 9.8709 44.1225 9.49556C44.1795 9.47516 44.2365 9.45653 44.2934 9.43837C43.8287 8.80372 43.2433 8.2028 42.5116 7.66296Z" fill="#FFC839" fill-opacity="0.76"/>
<path d="M38.966 5.97889L38.8231 6.29527C38.7208 6.52179 38.6709 6.76848 38.6773 7.01694L38.7284 9.01179C38.7338 9.22428 38.8679 9.41237 39.068 9.4843C39.4665 9.62769 40.1866 9.92591 41.0089 10.4462C40.3528 8.36335 42.5567 7.98943 42.5567 7.98943L42.4847 7.64298C41.567 6.97131 40.4213 6.39538 38.998 5.96875L38.966 5.97889Z" fill="url(#paint16_linear_401_4979)"/>
<path d="M38.966 5.97889L38.8231 6.29527C38.7208 6.52179 38.6709 6.76848 38.6773 7.01694L38.7284 9.01179C38.7338 9.22428 38.8679 9.41237 39.068 9.4843C39.4665 9.62769 40.1866 9.92591 41.0089 10.4462C40.3528 8.36335 42.5567 7.98943 42.5567 7.98943L42.4847 7.64298C41.567 6.97131 40.4213 6.39538 38.998 5.96875L38.966 5.97889Z" fill="#FFB332" fill-opacity="0.76"/>
<path d="M42.6572 11.7355C43.8979 12.9312 45.0601 14.6748 45.4945 17.1689L45.7191 16.7495C46.0881 14.8364 46.0982 11.7806 44.1807 9.28815C44.1033 9.31385 44.0256 9.34145 43.9479 9.37116C43.9477 9.37116 44.0022 10.6968 42.6572 11.7355Z" fill="url(#paint17_linear_401_4979)"/>
<path d="M42.6572 11.7355C43.8979 12.9312 45.0601 14.6748 45.4945 17.1689L45.7191 16.7495C46.0881 14.8364 46.0982 11.7806 44.1807 9.28815C44.1033 9.31385 44.0256 9.34145 43.9479 9.37116C43.9477 9.37116 44.0022 10.6968 42.6572 11.7355Z" fill="#45304C" fill-opacity="0.76"/>
<path d="M44.1154 9.59011C44.1188 9.55485 44.1213 9.52301 44.1229 9.4953C45.402 9.03907 46.6434 9.1426 47.5222 9.33799C46.5637 6.18847 43.5943 4.53252 42.1365 3.89127C41.6538 3.6789 41.0907 3.77901 40.707 4.14091L39.3734 5.39852C39.2055 5.55701 39.0702 5.74674 38.9751 5.95723L38.8887 6.14873C41.4254 6.92111 43.0728 8.17094 44.1154 9.59011Z" fill="url(#paint18_linear_401_4979)"/>
<path d="M44.1154 9.59011C44.1188 9.55485 44.1213 9.52301 44.1229 9.4953C45.402 9.03907 46.6434 9.1426 47.5222 9.33799C46.5637 6.18847 43.5943 4.53252 42.1365 3.89127C41.6538 3.6789 41.0907 3.77901 40.707 4.14091L39.3734 5.39852C39.2055 5.55701 39.0702 5.74674 38.9751 5.95723L38.8887 6.14873C41.4254 6.92111 43.0728 8.17094 44.1154 9.59011Z" fill="#FFDD7B" fill-opacity="0.76"/>
<path d="M45.9848 17.3144C47.9898 13.8535 48.1437 11.1749 47.4569 9.14047C46.5361 8.94873 45.2621 8.86913 43.9473 9.37124V9.37147C46.0165 11.9925 45.9152 15.2626 45.4939 17.1689C45.4346 17.4378 45.8467 17.5528 45.9848 17.3144Z" fill="url(#paint19_linear_401_4979)"/>
<path d="M45.9848 17.3144C47.9898 13.8535 48.1437 11.1749 47.4569 9.14047C46.5361 8.94873 45.2621 8.86913 43.9473 9.37124V9.37147C46.0165 11.9925 45.9152 15.2626 45.4939 17.1689C45.4346 17.4378 45.8467 17.5528 45.9848 17.3144Z" fill="#6E5677" fill-opacity="0.76"/>
<path d="M19.378 31.5471C14.2821 30.1483 16.5694 27.1351 18.5368 25.3618C18.0289 25.4994 17.5104 25.6475 16.9811 25.8064C6.19092 29.0434 3.31579 37.5843 2.65403 40.365C2.5729 40.706 2.93904 40.9779 3.24327 40.8038C4.46952 40.1023 5.39779 39.6626 6.03338 39.3946C6.30282 39.2811 6.54645 39.5958 6.37098 39.8298C5.17244 41.4279 4.55938 43.4312 4.26234 44.7614C4.15998 45.22 4.7023 45.5385 5.05393 45.2268C5.50863 44.8238 5.97595 44.4351 6.43124 44.0723C8.19178 42.6694 10.4733 42.0675 12.6867 42.4781C15.6526 43.0282 18.7904 42.8787 21.7938 42.3376C17.1294 39.4281 25.888 33.3339 19.378 31.5471Z" fill="url(#paint20_linear_401_4979)"/>
<path d="M19.378 31.5471C14.2821 30.1483 16.5694 27.1351 18.5368 25.3618C18.0289 25.4994 17.5104 25.6475 16.9811 25.8064C6.19092 29.0434 3.31579 37.5843 2.65403 40.365C2.5729 40.706 2.93904 40.9779 3.24327 40.8038C4.46952 40.1023 5.39779 39.6626 6.03338 39.3946C6.30282 39.2811 6.54645 39.5958 6.37098 39.8298C5.17244 41.4279 4.55938 43.4312 4.26234 44.7614C4.15998 45.22 4.7023 45.5385 5.05393 45.2268C5.50863 44.8238 5.97595 44.4351 6.43124 44.0723C8.19178 42.6694 10.4733 42.0675 12.6867 42.4781C15.6526 43.0282 18.7904 42.8787 21.7938 42.3376C17.1294 39.4281 25.888 33.3339 19.378 31.5471Z" fill="#FC899C" fill-opacity="0.48"/>
<path d="M35.2712 26.2265C32.7989 24.3455 29.292 23.5969 24.481 24.1655C24.1687 25.4688 24.2148 27.7423 27.947 28.5009C33.2926 29.5876 34.1213 32.3992 32.8029 35.3564C32.2908 36.5051 32.7131 37.4922 33.4209 38.27C33.7953 38.0687 34.1467 37.8701 34.4725 37.6769C38.8842 35.0593 39.055 29.1051 35.2712 26.2265Z" fill="url(#paint21_linear_401_4979)"/>
<path d="M35.2712 26.2265C32.7989 24.3455 29.292 23.5969 24.481 24.1655C24.1687 25.4688 24.2148 27.7423 27.947 28.5009C33.2926 29.5876 34.1213 32.3992 32.8029 35.3564C32.2908 36.5051 32.7131 37.4922 33.4209 38.27C33.7953 38.0687 34.1467 37.8701 34.4725 37.6769C38.8842 35.0593 39.055 29.1051 35.2712 26.2265Z" fill="#FFC5D3" fill-opacity="0.48"/>
</g>
<defs>
<linearGradient id="paint0_linear_401_4979" x1="0" y1="4" x2="113.607" y2="5.6548" gradientUnits="userSpaceOnUse">
<stop stop-color="#D90070"/>
<stop offset="1" stop-color="#EE006B"/>
</linearGradient>
<linearGradient id="paint1_linear_401_4979" x1="0" y1="4.66638" x2="50.4819" y2="5.25312" gradientUnits="userSpaceOnUse">
<stop stop-color="#D90070"/>
<stop offset="1" stop-color="#EE006B"/>
</linearGradient>
<linearGradient id="paint2_linear_401_4979" x1="35.4756" y1="19.2478" x2="77.1206" y2="19.5632" gradientUnits="userSpaceOnUse">
<stop stop-color="#D90070"/>
<stop offset="1" stop-color="#EE006B"/>
</linearGradient>
<linearGradient id="paint3_linear_401_4979" x1="28.6152" y1="52.7129" x2="31.0079" y2="52.7236" gradientUnits="userSpaceOnUse">
<stop stop-color="#D90070"/>
<stop offset="1" stop-color="#EE006B"/>
</linearGradient>
<linearGradient id="paint4_linear_401_4979" x1="28.6152" y1="52.7129" x2="31.0078" y2="52.7326" gradientUnits="userSpaceOnUse">
<stop stop-color="#D90070"/>
<stop offset="1" stop-color="#EE006B"/>
</linearGradient>
<linearGradient id="paint5_linear_401_4979" x1="17.7344" y1="52.4501" x2="23.1525" y2="52.5083" gradientUnits="userSpaceOnUse">
<stop stop-color="#D90070"/>
<stop offset="1" stop-color="#EE006B"/>
</linearGradient>
<linearGradient id="paint6_linear_401_4979" x1="19.2764" y1="52.4504" x2="23.1308" y2="52.4972" gradientUnits="userSpaceOnUse">
<stop stop-color="#D90070"/>
<stop offset="1" stop-color="#EE006B"/>
</linearGradient>
<linearGradient id="paint7_linear_401_4979" x1="-0.345703" y1="36.5572" x2="16.7139" y2="36.8621" gradientUnits="userSpaceOnUse">
<stop stop-color="#D90070"/>
<stop offset="1" stop-color="#EE006B"/>
</linearGradient>
<linearGradient id="paint8_linear_401_4979" x1="27.1514" y1="5.31567" x2="49.17" y2="5.49872" gradientUnits="userSpaceOnUse">
<stop stop-color="#D90070"/>
<stop offset="1" stop-color="#EE006B"/>
</linearGradient>
<linearGradient id="paint9_linear_401_4979" x1="27.8008" y1="0.0623779" x2="41.836" y2="0.34214" gradientUnits="userSpaceOnUse">
<stop stop-color="#D90070"/>
<stop offset="1" stop-color="#EE006B"/>
</linearGradient>
<linearGradient id="paint10_linear_401_4979" x1="14.5645" y1="30.991" x2="43.5834" y2="31.5201" gradientUnits="userSpaceOnUse">
<stop stop-color="#D90070"/>
<stop offset="1" stop-color="#EE006B"/>
</linearGradient>
<linearGradient id="paint11_linear_401_4979" x1="34.6191" y1="4.35138" x2="35.2627" y2="1.7956" gradientUnits="userSpaceOnUse">
<stop stop-color="#D90070"/>
<stop offset="1" stop-color="#EE006B"/>
</linearGradient>
<linearGradient id="paint12_linear_401_4979" x1="29.6172" y1="46.5269" x2="32.8481" y2="46.5492" gradientUnits="userSpaceOnUse">
<stop stop-color="#D90070"/>
<stop offset="1" stop-color="#EE006B"/>
</linearGradient>
<linearGradient id="paint13_linear_401_4979" x1="26.2148" y1="44.229" x2="34.5189" y2="44.3359" gradientUnits="userSpaceOnUse">
<stop stop-color="#D90070"/>
<stop offset="1" stop-color="#EE006B"/>
</linearGradient>
<linearGradient id="paint14_linear_401_4979" x1="16.1045" y1="23.9795" x2="38.2681" y2="24.3628" gradientUnits="userSpaceOnUse">
<stop stop-color="#D90070"/>
<stop offset="1" stop-color="#EE006B"/>
</linearGradient>
<linearGradient id="paint15_linear_401_4979" x1="40.8232" y1="7.66296" x2="44.3435" y2="7.70534" gradientUnits="userSpaceOnUse">
<stop stop-color="#D90070"/>
<stop offset="1" stop-color="#EE006B"/>
</linearGradient>
<linearGradient id="paint16_linear_401_4979" x1="38.6768" y1="5.96875" x2="42.6126" y2="6.01843" gradientUnits="userSpaceOnUse">
<stop stop-color="#D90070"/>
<stop offset="1" stop-color="#EE006B"/>
</linearGradient>
<linearGradient id="paint17_linear_401_4979" x1="42.6572" y1="9.28815" x2="45.9594" y2="9.30801" gradientUnits="userSpaceOnUse">
<stop stop-color="#D90070"/>
<stop offset="1" stop-color="#EE006B"/>
</linearGradient>
<linearGradient id="paint18_linear_401_4979" x1="38.8887" y1="3.78094" x2="47.6438" y2="3.97047" gradientUnits="userSpaceOnUse">
<stop stop-color="#D90070"/>
<stop offset="1" stop-color="#EE006B"/>
</linearGradient>
<linearGradient id="paint19_linear_401_4979" x1="43.9473" y1="8.99249" x2="47.8825" y2="9.0188" gradientUnits="userSpaceOnUse">
<stop stop-color="#D90070"/>
<stop offset="1" stop-color="#EE006B"/>
</linearGradient>
<linearGradient id="paint20_linear_401_4979" x1="2.64258" y1="25.3618" x2="22.1662" y2="25.6356" gradientUnits="userSpaceOnUse">
<stop stop-color="#D90070"/>
<stop offset="1" stop-color="#EE006B"/>
</linearGradient>
<linearGradient id="paint21_linear_401_4979" x1="24.3623" y1="23.9795" x2="38.1513" y2="24.1705" gradientUnits="userSpaceOnUse">
<stop stop-color="#D90070"/>
<stop offset="1" stop-color="#EE006B"/>
</linearGradient>
</defs>
</svg>
