<svg width="22" height="22" viewBox="0 0 22 22" fill="none" xmlns="http://www.w3.org/2000/svg">
<path fill-rule="evenodd" clip-rule="evenodd" d="M12.117 0.0350025C10.9107 -0.0856259 10.0195 0.906524 10.0195 1.98004V9.98004C10.0195 10.5105 10.2302 11.0192 10.6053 11.3943C10.9803 11.7693 11.4892 11.98 12.0196 11.98L20.0206 11.979C21.0947 11.979 22.0862 11.0859 21.9655 9.88112C21.7119 7.35571 20.5927 4.99569 18.7978 3.20118C17.0029 1.40666 14.6424 0.288042 12.117 0.0350025ZM17.3838 4.61555C15.9393 3.17142 14.0474 2.2623 12.0195 2.03583V9.98004L19.9647 9.97905C19.7377 7.95127 18.8282 6.05963 17.3838 4.61555Z" fill="currentColor" fill-opacity="1"/>
<path d="M7.42038 2.72575C7.92657 2.50485 8.15785 1.91544 7.93696 1.40925C7.71606 0.903066 7.12665 0.671789 6.62046 0.89268C4.97363 1.61133 3.52792 2.72245 2.40971 4.12891C1.29151 5.53537 0.53486 7.19434 0.205921 8.96078C-0.123019 10.7272 -0.0142354 12.5473 0.522762 14.262C1.05976 15.9767 2.00862 17.5337 3.28638 18.797C4.56415 20.0603 6.13192 20.9913 7.85262 21.5087C9.57333 22.026 11.3946 22.114 13.1571 21.7649C14.9197 21.4158 16.5699 20.6403 17.9635 19.5061C19.3571 18.3719 20.4517 16.9136 21.1515 15.2587C21.3666 14.75 21.1286 14.1633 20.6199 13.9482C20.1112 13.7331 19.5245 13.9711 19.3094 14.4797C18.7368 15.8338 17.8413 17.0269 16.7011 17.9549C15.5609 18.8829 14.2107 19.5174 12.7686 19.803C11.3265 20.0887 9.83636 20.0167 8.42851 19.5934C7.02067 19.1701 5.73795 18.4083 4.6925 17.3747C3.64705 16.3412 2.87072 15.0672 2.43135 13.6643C1.99199 12.2614 1.90299 10.7722 2.17212 9.32692C2.44125 7.88165 3.06033 6.52431 3.97522 5.37357C4.89012 4.22283 6.07298 3.31373 7.42038 2.72575Z" fill="currentColor" fill-opacity="1"/>
</svg>
