<svg width="20" height="21" viewBox="0 0 20 21" fill="none" xmlns="http://www.w3.org/2000/svg">
<path fill-rule="evenodd" clip-rule="evenodd" d="M6.99186 21C6.99457 21 6.99728 21 7 21C7.00272 21 7.00543 21 7.00814 21H12.9919C12.9946 21 12.9973 21 13 21C13.0027 21 13.0054 21 13.0081 21H17C17.7957 21 18.5587 20.6839 19.1213 20.1213C19.6839 19.5587 20 18.7956 20 18V8.99997C20.0001 8.56365 19.905 8.13257 19.7213 7.73678C19.5382 7.34205 19.2713 6.9919 18.9393 6.71061L18.9365 6.70821L11.9417 0.71364L11.9365 0.709208C11.395 0.251571 10.709 0.000488281 10 0.000488281C9.29104 0.000488281 8.60498 0.251571 8.0635 0.709208L1.06059 6.71067C0.728636 6.99195 0.461827 7.34208 0.278682 7.73678C0.0950344 8.13257 -6.95632e-05 8.56389 3.81754e-08 9.00021V18C3.81754e-08 18.7956 0.316071 19.5587 0.87868 20.1213C1.44129 20.6839 2.20435 21 3 21H6.99186ZM2.35452 8.23575L9.35668 2.23489C9.53683 2.08351 9.76463 2.00049 10 2.00049C10.2354 2.00049 10.4632 2.08351 10.6433 2.23489L10.6455 2.23673L17.6403 8.2313L17.6455 8.23573C17.7566 8.32963 17.8459 8.44663 17.9071 8.57859C17.9683 8.71054 18 8.8545 18 8.99997V18C18 18.2652 17.8946 18.5195 17.7071 18.7071C17.5196 18.8946 17.2652 19 17 19H14V12C14 11.4696 13.7893 10.9609 13.4142 10.5858C13.0391 10.2107 12.5304 10 12 10H8C7.46957 10 6.96086 10.2107 6.58579 10.5858C6.21071 10.9609 6 11.4696 6 12V19H3C2.73478 19 2.48043 18.8946 2.29289 18.7071C2.10536 18.5195 2 18.2652 2 18V8.99973C1.99997 8.85426 2.03167 8.71054 2.09289 8.57859C2.15412 8.44663 2.24341 8.32965 2.35452 8.23575ZM12 19H8V12H12V19Z" fill="currentColor" fill-opacity="1"/>
</svg>
