<svg width="20" height="22" viewBox="0 0 20 22" fill="none" xmlns="http://www.w3.org/2000/svg">
<path fill-rule="evenodd" clip-rule="evenodd" d="M20 4C20 3.14805 19.4811 2.49559 18.9117 2.04685C18.331 1.58923 17.5528 1.22085 16.6802 0.929996C14.9246 0.344796 12.5629 0 10 0C7.43715 0 5.07541 0.344796 3.31981 0.929996C2.44724 1.22085 1.66896 1.58923 1.08829 2.04685C0.518893 2.49559 0 3.14805 0 4V18C0 18.8252 0.492391 19.4718 1.05814 19.9271C1.63313 20.3898 2.41415 20.7681 3.31981 21.07C5.13772 21.676 7.53987 22 10 22C12.4601 22 14.8623 21.676 16.6802 21.07C17.5858 20.7681 18.3669 20.3898 18.9419 19.9271C19.5076 19.4718 20 18.8252 20 18V4ZM2 4.00027C2.00001 4.00151 2.00018 4.00584 2.00305 4.01529C2.00645 4.02644 2.01483 4.04845 2.03507 4.08143C2.07752 4.15057 2.16408 4.25453 2.32624 4.38232C2.65642 4.64253 3.19616 4.9206 3.95227 5.17264C5.45402 5.67322 7.59229 6 10 6C12.4077 6 14.546 5.67322 16.0477 5.17264C16.8038 4.9206 17.3436 4.64253 17.6738 4.38232C17.8359 4.25453 17.9225 4.15057 17.9649 4.08143C17.9852 4.04845 17.9935 4.02644 17.9969 4.01529C17.9999 4.00571 18 4.00139 18 4.00022C18 3.99933 18 3.99479 17.9969 3.98471C17.9935 3.97356 17.9852 3.95155 17.9649 3.91857C17.9225 3.84943 17.8359 3.74547 17.6738 3.61768C17.3436 3.35747 16.8038 3.0794 16.0477 2.82736C14.546 2.32678 12.4077 2 10 2C7.59229 2 5.45402 2.32678 3.95227 2.82736C3.19616 3.0794 2.65642 3.35747 2.32624 3.61768C2.16408 3.74547 2.07752 3.84943 2.03507 3.91857C2.01483 3.95155 2.00645 3.97356 2.00305 3.98471C1.99998 3.99479 2 3.99938 2 4.00027ZM16.6802 7.07C17.1533 6.91229 17.5988 6.73177 18 6.5266V11L17.9998 11.0016C17.9996 11.0029 17.9991 11.0059 17.9976 11.011C17.9946 11.0211 17.9869 11.042 17.9679 11.0737C17.9281 11.14 17.8456 11.2421 17.688 11.369C17.3669 11.6274 16.8299 11.9119 16.0477 12.1726C14.49 12.6919 12.3138 13 10 13C7.68623 13 5.51001 12.6919 3.95227 12.1726C3.1701 11.9119 2.6331 11.6274 2.31203 11.369C2.1544 11.2421 2.07192 11.14 2.03215 11.0737C2.01311 11.042 2.00542 11.0211 2.00243 11.011C2.00091 11.0059 2.00036 11.0029 2.00017 11.0016L2.00001 11.0003L2 6.5266C2.40123 6.73177 2.84666 6.91229 3.31981 7.07C5.07541 7.6552 7.43715 8 10 8C12.5629 8 14.9246 7.6552 16.6802 7.07ZM2 13.526C2.39709 13.7295 2.84103 13.9104 3.31981 14.07C5.13772 14.676 7.53987 15 10 15C12.4601 15 14.8623 14.676 16.6802 14.07C17.159 13.9104 17.6029 13.7295 18 13.526V18L17.9998 18.0016C17.9996 18.0028 17.9991 18.0059 17.9976 18.011C17.9946 18.0211 17.9869 18.042 17.9679 18.0737C17.9281 18.14 17.8456 18.2421 17.688 18.369C17.3669 18.6274 16.8299 18.9119 16.0477 19.1726C14.49 19.6919 12.3138 20 10 20C7.68623 20 5.51001 19.6919 3.95227 19.1726C3.1701 18.9119 2.6331 18.6274 2.31203 18.369C2.1544 18.2421 2.07192 18.14 2.03215 18.0737C2.01311 18.042 2.00542 18.0211 2.00243 18.011C2.00091 18.0059 2.00036 18.0029 2.00017 18.0016L2.00001 18.0003L2 13.526Z" fill="currentColor" fill-opacity="1"/>
</svg>
