<svg width="20" height="20" viewBox="0 0 20 20" fill="none" xmlns="http://www.w3.org/2000/svg">
<path d="M12 1C12 0.447715 12.4477 0 13 0H17C17.7957 0 18.5587 0.31607 19.1213 0.87868C19.6839 1.44129 20 2.20435 20 3V17C20 17.7957 19.6839 18.5587 19.1213 19.1213C18.5587 19.6839 17.7957 20 17 20H13C12.4477 20 12 19.5523 12 19C12 18.4477 12.4477 18 13 18H17C17.2652 18 17.5196 17.8946 17.7071 17.7071C17.8946 17.5196 18 17.2652 18 17V3C18 2.73478 17.8946 2.48043 17.7071 2.29289C17.5196 2.10536 17.2652 2 17 2H13C12.4477 2 12 1.55228 12 1Z" fill="currentColor" fill-opacity="1"/>
<path d="M12 1C12 0.447715 12.4477 0 13 0H17C17.7957 0 18.5587 0.31607 19.1213 0.87868C19.6839 1.44129 20 2.20435 20 3V17C20 17.7957 19.6839 18.5587 19.1213 19.1213C18.5587 19.6839 17.7957 20 17 20H13C12.4477 20 12 19.5523 12 19C12 18.4477 12.4477 18 13 18H17C17.2652 18 17.5196 17.8946 17.7071 17.7071C17.8946 17.5196 18 17.2652 18 17V3C18 2.73478 17.8946 2.48043 17.7071 2.29289C17.5196 2.10536 17.2652 2 17 2H13C12.4477 2 12 1.55228 12 1Z" fill="url(#paint0_linear_401_5518)"/>
<path d="M7.29289 4.29289C7.68342 3.90237 8.31658 3.90237 8.70711 4.29289L13.7064 9.29218C13.7088 9.29459 13.7112 9.29702 13.7136 9.29945C13.8901 9.47921 13.9992 9.72537 14 9.997L14 10L14 10.003C13.9996 10.1375 13.9727 10.2657 13.9241 10.3828C13.8764 10.498 13.8063 10.6062 13.7136 10.7005C13.7112 10.703 13.7088 10.7054 13.7064 10.7078L8.70711 15.7071C8.31658 16.0976 7.68342 16.0976 7.29289 15.7071C6.90237 15.3166 6.90237 14.6834 7.29289 14.2929L10.5858 11H1C0.447715 11 0 10.5523 0 10C0 9.44771 0.447715 9 1 9H10.5858L7.29289 5.70711C6.90237 5.31658 6.90237 4.68342 7.29289 4.29289Z" fill="currentColor" fill-opacity="1"/>
<path d="M7.29289 4.29289C7.68342 3.90237 8.31658 3.90237 8.70711 4.29289L13.7064 9.29218C13.7088 9.29459 13.7112 9.29702 13.7136 9.29945C13.8901 9.47921 13.9992 9.72537 14 9.997L14 10L14 10.003C13.9996 10.1375 13.9727 10.2657 13.9241 10.3828C13.8764 10.498 13.8063 10.6062 13.7136 10.7005C13.7112 10.703 13.7088 10.7054 13.7064 10.7078L8.70711 15.7071C8.31658 16.0976 7.68342 16.0976 7.29289 15.7071C6.90237 15.3166 6.90237 14.6834 7.29289 14.2929L10.5858 11H1C0.447715 11 0 10.5523 0 10C0 9.44771 0.447715 9 1 9H10.5858L7.29289 5.70711C6.90237 5.31658 6.90237 4.68342 7.29289 4.29289Z" fill="url(#paint1_linear_401_5518)"/>
<defs>
<linearGradient id="paint0_linear_401_5518" x1="0" y1="0" x2="20.287" y2="0.295501" gradientUnits="userSpaceOnUse">
<stop stop-color="#D90070"/>
<stop offset="1" stop-color="#EE006B"/>
</linearGradient>
<linearGradient id="paint1_linear_401_5518" x1="0" y1="0" x2="20.287" y2="0.295501" gradientUnits="userSpaceOnUse">
<stop stop-color="#D90070"/>
<stop offset="1" stop-color="#EE006B"/>
</linearGradient>
</defs>
</svg>
