<svg width="20" height="20" viewBox="0 0 20 20" fill="none" xmlns="http://www.w3.org/2000/svg">
<path fill-rule="evenodd" clip-rule="evenodd" d="M3 2C2.73478 2 2.48043 2.10536 2.29289 2.29289C2.10536 2.48043 2 2.73478 2 3V17C2 17.2652 2.10536 17.5196 2.29289 17.7071C2.48043 17.8946 2.73478 18 3 18H4V12C4 11.4696 4.21071 10.9609 4.58579 10.5858C4.96086 10.2107 5.46957 10 6 10H14C14.5304 10 15.0391 10.2107 15.4142 10.5858C15.7893 10.9609 16 11.4696 16 12V18H17C17.2652 18 17.5196 17.8946 17.7071 17.7071C17.8946 17.5196 18 17.2652 18 17V6.80836C17.9947 6.54674 17.8871 6.2975 17.7001 6.11424L17.6929 6.10714L13.8857 2.29993C13.7025 2.11293 13.4533 2.00527 13.1917 2H6V5H13C13.5523 5 14 5.44772 14 6C14 6.55228 13.5523 7 13 7H6C5.46957 7 4.96086 6.78929 4.58579 6.41421C4.21071 6.03914 4 5.53043 4 5V2H3ZM5 0H3C2.20435 0 1.44129 0.31607 0.87868 0.87868C0.31607 1.44129 0 2.20435 0 3V17C0 17.7957 0.31607 18.5587 0.87868 19.1213C1.44129 19.6839 2.20435 20 3 20H5H15H17C17.7957 20 18.5587 19.6839 19.1213 19.1213C19.6839 18.5587 20 17.7957 20 17V6.8L19.9999 6.78576C19.9887 5.99635 19.6667 5.24328 19.104 4.68975L15.3103 0.896118C14.7568 0.333339 14.0037 0.011346 13.2142 0.000101447L13.2 0H5ZM6 12V18H14L14 12H6Z" fill="currentColor" fill-opacity="1"/>
</svg>
