<svg width="20" height="22" viewBox="0 0 20 22" fill="none" xmlns="http://www.w3.org/2000/svg">
<path fill-rule="evenodd" clip-rule="evenodd" d="M10 5.99805C7.23858 5.99805 5 8.23662 5 10.998C5 13.7595 7.23858 15.998 10 15.998C12.7614 15.998 15 13.7595 15 10.998C15 8.23662 12.7614 5.99805 10 5.99805ZM7 10.998C7 9.34119 8.34315 7.99805 10 7.99805C11.6569 7.99805 13 9.34119 13 10.998C13 12.6549 11.6569 13.998 10 13.998C8.34315 13.998 7 12.6549 7 10.998Z" fill="white" fill-opacity="0.64"/>
<path fill-rule="evenodd" clip-rule="evenodd" d="M10 0C9.47421 0 8.95768 0.138185 8.50214 0.400688L1.50386 4.3997L1.5 4.40192C1.04439 4.66497 0.66597 5.0432 0.402692 5.49867C0.139414 5.95414 0.000539601 6.47084 0 6.99692V14.999C0.000539601 15.5251 0.139414 16.0418 0.402692 16.4972C0.66597 16.9527 1.04439 17.3309 1.5 17.594L1.50386 17.5962L8.5 21.594L8.50185 21.595C8.95745 21.8577 9.4741 21.9959 10 21.9959C10.5259 21.9959 11.0426 21.8576 11.4982 21.595L11.5 21.594L18.4961 17.5962L18.5 17.594C18.9556 17.3309 19.334 16.9527 19.5973 16.4972C19.8606 16.0418 19.9995 15.5251 20 14.999V6.99692C19.9995 6.47084 19.8606 5.95414 19.5973 5.49867C19.334 5.0432 18.9556 4.66497 18.5 4.40191L11.5 0.401924L11.4979 0.40072C11.0424 0.138196 10.5258 0 10 0ZM9.5 2.13397C9.65202 2.04621 9.82446 2 10 2C10.1755 2 10.348 2.04621 10.5 2.13398L17.5 6.13398L17.5016 6.13489C17.6527 6.22253 17.7783 6.34826 17.8658 6.49956C17.9535 6.65138 17.9998 6.82361 18 6.99897V14.9969C17.9998 15.1723 17.9535 15.3445 17.8658 15.4963C17.7783 15.6476 17.6527 15.7734 17.5016 15.861L17.5 15.8619L10.5039 19.8597L10.5 19.8619C10.348 19.9497 10.1755 19.9959 10 19.9959C9.82446 19.9959 9.65202 19.9497 9.5 19.8619L2.5 15.8619L2.49842 15.861C2.34726 15.7734 2.22169 15.6476 2.13423 15.4963C2.04654 15.3446 2.00025 15.1726 2 14.9974V6.99854C2.00025 6.82333 2.04654 6.65125 2.13423 6.49956C2.22169 6.34826 2.34726 6.22253 2.49842 6.13489L2.5 6.13398L9.49614 2.1362L9.5 2.13397Z" fill="white" fill-opacity="0.64"/>
</svg>
