<?xml version="1.0" encoding="UTF-8" standalone="no" ?>
<!DOCTYPE svg PUBLIC "-//W3C//DTD SVG 1.1//EN" "http://www.w3.org/Graphics/SVG/1.1/DTD/svg11.dtd">
<svg xmlns="http://www.w3.org/2000/svg" xmlns:xlink="http://www.w3.org/1999/xlink" version="1.1" width="1080" height="1080" viewBox="0 0 1080 1080" xml:space="preserve">
<desc>Created with Fabric.js 5.2.4</desc>
<defs>
</defs>
<g transform="matrix(1 0 0 1 540 540)" id="5daefd98-783d-42a2-88ad-1d7317da914d"  >
<rect style="stroke: none; stroke-width: 1; stroke-dasharray: none; stroke-linecap: butt; stroke-dashoffset: 0; stroke-linejoin: miter; stroke-miterlimit: 4; fill: rgb(255,255,255); fill-rule: nonzero; opacity: 1; visibility: hidden;" vector-effect="non-scaling-stroke"  x="-540" y="-540" rx="0" ry="0" width="1080" height="1080" />
</g>
<g transform="matrix(1 0 0 1 540 540)" id="0b849320-67e1-4bf6-99e3-f6ae335bb954"  >
</g>
<g transform="matrix(1 0 0 1 540 540)"  >
<rect style="stroke: none; stroke-width: 1; stroke-dasharray: none; stroke-linecap: butt; stroke-dashoffset: 0; stroke-linejoin: miter; stroke-miterlimit: 4; fill: rgb(255,255,255); fill-rule: nonzero; opacity: 1;" vector-effect="non-scaling-stroke"  x="-80" y="-80" rx="80" ry="80" width="160" height="160" />
</g>
<g transform="matrix(1 0 0 1 540 540)"  >
<path style="stroke: none; stroke-width: 1; stroke-dasharray: none; stroke-linecap: butt; stroke-dashoffset: 0; stroke-linejoin: miter; stroke-miterlimit: 4; fill: rgb(255,255,255); fill-rule: nonzero; opacity: 1;" vector-effect="non-scaling-stroke"  transform=" translate(-80, -80)" d="M 160 80 C 160 35.8164 124.183 0 79.9987 0 C 35.8167 0 0 35.8164 0 80 C 0 124.181 35.8167 160 79.9987 160 C 124.183 160 160 124.181 160 80 Z" stroke-linecap="round" />
</g>
<g transform="matrix(1 0 0 1 540 540)" clip-path="url(#CLIPPATH_3)"  >
<clipPath id="CLIPPATH_3" >
	<rect transform="matrix(1 0 0 1 0 0)" id="clip0_1043_21921" x="-71.111" y="-71.111" rx="0" ry="0" width="142.222" height="142.222" />
</clipPath>
<rect style="stroke: none; stroke-width: 1; stroke-dasharray: none; stroke-linecap: butt; stroke-dashoffset: 0; stroke-linejoin: miter; stroke-miterlimit: 4; fill: rgb(255,255,255); fill-rule: nonzero; opacity: 1;" vector-effect="non-scaling-stroke"  x="-71.111" y="-71.111" rx="0" ry="0" width="142.222" height="142.222" />
</g>
<g transform="matrix(1 0 0 1 540 540)" clip-path="url(#CLIPPATH_4)"  >
<clipPath id="CLIPPATH_4" >
	<rect transform="matrix(1 0 0 1 0 0)" id="clip0_1043_21921" x="-71.111" y="-71.111" rx="0" ry="0" width="142.222" height="142.222" />
</clipPath>
<path style="stroke: none; stroke-width: 1; stroke-dasharray: none; stroke-linecap: butt; stroke-dashoffset: 0; stroke-linejoin: miter; stroke-miterlimit: 4; fill: rgb(255,255,255); fill-rule: nonzero; opacity: 1;" vector-effect="non-scaling-stroke"  transform=" translate(-80, -80)" d="M 79.9998 151.111 C 119.273 151.111 151.111 119.274 151.111 80 C 151.111 40.7264 119.273 8.88889 79.9998 8.88889 C 40.7262 8.88889 8.88867 40.7264 8.88867 80 C 8.88867 119.274 40.7262 151.111 79.9998 151.111 Z" stroke-linecap="round" />
</g>
</svg>