<svg width="21" height="20" viewBox="0 0 21 20" fill="none" xmlns="http://www.w3.org/2000/svg">
<path fill-rule="evenodd" clip-rule="evenodd" d="M3 0C2.20435 0 1.44129 0.31607 0.87868 0.87868C0.31607 1.44129 0 2.20435 0 3V17C0 17.7957 0.31607 18.5587 0.87868 19.1213C1.44129 19.6839 2.20435 20 3 20H18C18.5304 20 19.0391 19.7893 19.4142 19.4142C19.7893 19.0391 20 18.5304 20 18V14.7321C20.1501 14.6454 20.2895 14.5389 20.4142 14.4142C20.7893 14.0391 21 13.5304 21 13V11C21 10.4696 20.7893 9.96086 20.4142 9.58579C20.2895 9.46111 20.1501 9.3546 20 9.26794V6C20 5.46957 19.7893 4.96086 19.4142 4.58579C19.0391 4.21071 18.5304 4 18 4V2C18 1.46957 17.7893 0.960861 17.4142 0.585786C17.0391 0.210713 16.5304 0 16 0H3ZM18 15V18H3C2.73478 18 2.48043 17.8946 2.29289 17.7071C2.10536 17.5196 2 17.2652 2 17V5.82843C2.3182 5.94094 2.65606 6 3 6H18V9H16C15.2043 9 14.4413 9.31607 13.8787 9.87868C13.3161 10.4413 13 11.2043 13 12C13 12.7957 13.3161 13.5587 13.8787 14.1213C14.4413 14.6839 15.2043 15 16 15H18ZM2 3C2 3.26522 2.10536 3.51957 2.29289 3.70711C2.48043 3.89464 2.73478 4 3 4H16V2H3C2.73478 2 2.48043 2.10536 2.29289 2.29289C2.10536 2.48043 2 2.73478 2 3ZM19 13V11H16C15.7348 11 15.4804 11.1054 15.2929 11.2929C15.1054 11.4804 15 11.7348 15 12C15 12.2652 15.1054 12.5196 15.2929 12.7071C15.4804 12.8946 15.7348 13 16 13H19Z" fill="currentColor" fill-opacity="1"/>
</svg>
